<?xml version="1.0" standalone="no"?>
<!DOCTYPE svg PUBLIC "-//W3C//DTD SVG 20010904//EN"
 "http://www.w3.org/TR/2001/REC-SVG-20010904/DTD/svg10.dtd">
<svg version="1.0" xmlns="http://www.w3.org/2000/svg"
 width="1920.000000pt" height="1080.000000pt" viewBox="0 0 1920.000000 1080.000000"
 preserveAspectRatio="xMidYMid meet">

<g transform="translate(0.000000,1080.000000) scale(0.100000,-0.100000)"
fill="#000000" stroke="none">
<path d="M14245 9136 c-16 -7 -98 -56 -182 -109 -446 -281 -767 -532 -964
-752 -119 -133 -180 -226 -319 -485 -345 -644 -719 -1120 -1150 -1466 -69 -56
-150 -128 -182 -162 -66 -72 -151 -198 -202 -299 -20 -40 -41 -73 -47 -73 -16
0 -74 -136 -98 -230 -38 -146 -38 -539 -1 -573 10 -9 11 -9 6 1 -4 6 -2 12 3
12 6 0 11 9 11 20 0 11 5 20 10 20 6 0 10 -6 10 -13 0 -28 26 -67 53 -78 15
-7 44 -9 67 -5 22 3 40 2 40 -2 0 -15 -60 -94 -119 -157 -113 -120 -171 -199
-180 -250 l-9 -47 35 34 c54 51 309 331 409 448 108 127 381 461 604 740 354
442 581 702 835 956 331 331 595 535 930 718 165 91 225 134 323 236 173 177
311 456 382 775 19 83 49 266 55 335 3 36 8 85 11 110 l4 45 -15 -33 c-8 -19
-20 -63 -27 -98 -11 -60 -21 -79 -30 -53 -2 7 -17 -51 -32 -127 -15 -77 -34
-152 -41 -169 l-14 -30 5 35 c3 19 12 80 20 135 8 55 18 177 21 271 7 199 -3
258 -49 304 -26 26 -36 30 -86 30 -31 -1 -70 -7 -87 -14z m272 -478 c-3 -8 -6
-5 -6 6 -1 11 2 17 5 13 3 -3 4 -12 1 -19z"/>
<path d="M4841 9020 c-40 -40 -45 -85 -38 -285 14 -344 93 -659 212 -842 113
-173 219 -262 617 -513 460 -290 946 -772 1478 -1467 58 -75 140 -181 183
-235 42 -54 75 -98 73 -98 -3 0 -33 35 -68 78 -232 286 -610 719 -825 947
-360 382 -721 669 -1059 843 -218 112 -334 215 -461 410 -128 194 -198 389
-293 816 -22 99 -43 183 -48 188 -9 9 3 -161 18 -242 5 -30 12 -73 16 -95 24
-165 94 -393 169 -552 72 -153 157 -273 273 -385 96 -93 127 -114 342 -233
292 -162 554 -368 876 -689 268 -269 467 -497 869 -996 356 -442 440 -545 554
-680 118 -140 451 -503 456 -498 2 2 0 22 -4 44 -9 48 -66 126 -190 259 -46
50 -115 133 -154 185 -39 52 -101 131 -137 175 -154 188 -176 228 -34 63 100
-117 134 -151 184 -182 105 -68 151 -32 170 131 29 257 -4 485 -100 690 -87
185 -201 319 -429 500 -237 189 -541 508 -737 773 -162 220 -323 466 -434 665
-108 192 -204 320 -349 466 -104 103 -285 257 -387 329 -12 8 -47 35 -79 60
-135 105 -515 363 -571 386 -47 20 -59 18 -93 -16z m2550 -3467 c13 -16 12
-17 -3 -4 -10 7 -18 15 -18 17 0 8 8 3 21 -13z m114 -133 c3 -5 1 -10 -4 -10
-6 0 -11 5 -11 10 0 6 2 10 4 10 3 0 8 -4 11 -10z m56 -77 c13 -16 12 -17 -3
-4 -10 7 -18 15 -18 17 0 8 8 3 21 -13z"/>
<path d="M6671 8784 c-1 -45 32 -303 48 -375 5 -24 13 -60 16 -79 21 -124 114
-418 187 -590 240 -564 651 -1078 1186 -1484 115 -87 198 -174 280 -295 163
-238 300 -581 377 -937 20 -93 44 -195 54 -227 14 -46 15 -59 5 -68 -9 -7 -19
-7 -33 1 -23 12 -28 35 -10 46 6 4 9 20 6 38 -8 47 -91 254 -159 396 l-60 125
-10 -35 c-6 -19 -8 -52 -5 -73 5 -33 3 -37 -12 -32 -14 4 -20 -3 -29 -32 -42
-140 -53 -392 -27 -588 18 -132 19 -173 5 -159 -17 17 -29 106 -39 315 -13
245 -19 295 -34 280 -17 -17 -18 -271 -2 -376 16 -103 13 -124 -6 -38 -12 58
-29 96 -23 51 1 -13 8 -72 14 -133 22 -202 69 -385 107 -408 21 -13 15 -36
-12 -43 -14 -3 -54 -3 -88 0 -75 8 -90 -2 -93 -67 -4 -96 76 -208 254 -355 65
-53 42 -51 -30 4 -114 87 -299 281 -371 391 -58 88 -146 183 -170 183 -13 0
68 -150 128 -240 84 -123 160 -214 262 -310 123 -116 217 -182 428 -296 99
-53 221 -119 270 -146 179 -96 232 -154 280 -300 15 -46 31 -87 36 -93 14 -14
11 -42 -5 -48 -7 -3 -24 0 -37 7 -21 10 -24 18 -21 55 3 36 -2 48 -33 86 -55
68 -123 121 -137 107 -9 -9 -6 -22 12 -54 l24 -43 -29 20 c-173 114 -217 128
-561 180 -205 30 -318 61 -440 120 -262 127 -395 312 -519 725 -170 568 -238
734 -432 1054 -100 165 -233 317 -302 345 -28 12 -34 12 -48 -2 -10 -9 -17
-35 -18 -61 -2 -46 0 -66 35 -256 61 -338 77 -496 79 -800 2 -248 -7 -376 -45
-675 -15 -110 -27 -241 -28 -291 -2 -134 20 -150 130 -94 32 16 60 30 61 30 1
0 -2 -11 -7 -25 -21 -56 -100 -156 -210 -267 -158 -160 -213 -225 -227 -270
l-11 -39 56 48 c219 184 365 340 477 508 69 104 115 202 115 245 0 42 17 17
29 -42 7 -35 29 -106 48 -158 121 -325 285 -513 508 -583 101 -31 255 -29 385
6 l95 26 36 -39 c24 -26 47 -69 68 -127 88 -245 232 -398 415 -442 27 -7 67
-21 88 -32 129 -66 327 -358 484 -712 l54 -122 0 81 0 80 -95 191 c-92 184
-104 213 -87 213 26 0 104 -40 122 -63 12 -15 30 -27 41 -27 18 0 19 8 19 110
0 122 1 124 64 93 33 -15 37 -15 85 5 l50 21 3 -112 c3 -107 4 -112 25 -115
14 -2 27 5 38 22 13 19 86 56 112 56 14 0 -9 -60 -81 -205 -85 -170 -85 -170
-88 -258 -2 -62 0 -81 6 -65 135 323 294 595 422 720 78 76 121 103 188 119
91 21 157 60 237 139 65 64 84 91 126 180 28 58 62 135 77 171 15 37 40 78 55
93 27 25 29 26 68 12 22 -8 85 -22 139 -31 267 -46 497 54 652 283 87 128 193
377 209 489 8 58 19 62 26 11 15 -111 165 -334 353 -524 88 -89 286 -266 291
-260 2 1 -2 18 -9 37 -15 42 -97 141 -200 239 -83 80 -97 110 -50 110 35 0 72
25 72 49 0 10 7 24 15 31 20 17 19 72 -5 255 -11 83 -24 188 -30 235 -5 47
-12 105 -15 130 -20 158 -15 891 5 780 6 -33 7 -33 13 -10 3 14 13 91 21 171
59 562 256 1090 560 1504 l66 90 -102 -105 c-170 -173 -222 -251 -317 -470
-27 -63 -68 -153 -90 -200 l-40 -85 -1 73 c0 79 -11 102 -51 102 -82 0 -297
-238 -480 -532 -132 -212 -226 -418 -320 -701 -34 -100 -66 -185 -72 -188 -5
-4 -7 -14 -4 -22 3 -9 2 -17 -3 -19 -5 -2 -34 -84 -64 -183 -103 -337 -164
-462 -269 -548 -168 -137 -319 -191 -721 -257 -201 -33 -285 -59 -381 -117
-33 -20 -63 -38 -68 -40 -4 -3 4 12 18 33 27 40 32 64 13 64 -20 0 -121 -83
-163 -134 -33 -41 -37 -50 -31 -85 7 -44 -9 -65 -46 -59 -28 4 -28 9 14 129
62 177 89 202 403 370 359 191 443 246 594 393 134 130 254 289 338 446 39 73
46 93 30 84 -46 -26 -103 -86 -143 -147 -45 -71 -101 -137 -115 -137 -4 0 -7
19 -7 43 1 23 -2 57 -6 75 -9 37 -23 39 -120 21 -92 -17 -148 6 -96 39 12 7
18 17 15 22 -3 5 5 41 19 80 14 38 35 136 47 217 37 253 29 743 -11 718 -5 -3
-12 -30 -16 -61 -8 -67 -16 -60 -33 26 -19 104 -31 132 -50 127 -15 -4 -17 2
-13 48 2 29 0 60 -5 70 -8 14 -17 3 -50 -62 -113 -218 -209 -472 -198 -523 5
-23 3 -32 -10 -36 -30 -12 -33 10 -14 91 10 44 32 143 50 220 93 417 288 845
484 1062 31 34 104 99 162 144 822 634 1305 1428 1422 2336 28 213 30 235 23
228 -9 -8 -27 -79 -57 -220 -126 -586 -270 -944 -535 -1335 -119 -174 -287
-378 -356 -430 -18 -14 -18 -14 -3 5 130 162 119 148 185 245 201 294 350 616
428 926 51 205 70 390 44 437 -7 12 -14 23 -15 25 0 2 -19 -6 -40 -17 -40 -20
-67 -48 -178 -180 -82 -97 -354 -363 -456 -445 -189 -151 -351 -229 -513 -246
-45 -5 -95 -12 -113 -16 -18 -3 -48 -3 -68 0 -48 9 -50 48 -2 76 85 50 303
406 392 639 54 144 117 426 114 512 -1 41 -35 -44 -74 -189 -52 -194 -88 -290
-166 -449 -100 -204 -288 -448 -321 -415 -14 14 -20 186 -7 219 5 15 5 23 -2
23 -5 0 -2 14 7 31 8 17 17 43 18 58 1 14 8 36 14 48 8 15 9 24 2 28 -7 4 -3
19 10 42 16 28 18 38 9 47 -9 8 -10 8 -5 -1 5 -9 2 -11 -8 -7 -12 5 -13 11 -6
24 14 26 13 30 -6 23 -13 -5 -15 -3 -6 13 8 15 -12 8 -84 -28 -52 -26 -112
-53 -135 -59 -25 -8 -46 -23 -56 -40 -9 -16 -29 -33 -45 -40 -15 -6 -30 -20
-33 -30 -4 -10 -10 -19 -14 -19 -14 0 -59 -46 -75 -78 -8 -16 -21 -36 -28 -44
-12 -12 -46 -79 -99 -193 -30 -65 -87 -261 -114 -389 -52 -248 -74 -518 -75
-943 -1 -170 -6 -344 -11 -388 -29 -262 -138 -630 -260 -881 -55 -115 -82
-182 -90 -230 -19 -107 -6 -273 36 -474 44 -208 85 -443 85 -481 0 -16 7 -32
16 -37 14 -8 16 -28 12 -153 -4 -119 -9 -154 -28 -204 -24 -63 -65 -119 -110
-147 -15 -10 -35 -33 -45 -52 -16 -30 -17 -38 -6 -60 22 -40 9 -56 -48 -56
-39 0 -53 4 -60 19 -8 14 -7 22 4 31 8 7 15 19 15 27 0 25 -31 69 -62 87 -48
29 -119 118 -124 156 -14 109 -23 211 -20 235 3 17 5 52 5 79 1 42 3 47 16 36
13 -11 15 -8 15 21 0 51 34 255 70 419 52 236 62 322 58 460 l-5 125 -57 120
c-32 66 -62 123 -68 126 -11 7 -77 202 -143 424 -88 297 -94 347 -105 805 -9
379 -18 517 -41 675 -12 84 -83 384 -98 413 -19 38 -41 93 -41 104 0 6 -8 18
-19 27 -10 9 -20 25 -22 36 -3 11 -14 21 -26 23 -12 2 -25 13 -29 25 -10 33
-24 37 -63 18 -27 -13 -44 -16 -66 -10 -23 7 -43 4 -82 -14 -29 -12 -53 -28
-53 -36 0 -7 -6 -11 -15 -7 -11 4 -15 -1 -15 -18 0 -17 -7 -26 -25 -30 -14 -4
-25 -13 -25 -21 0 -7 -9 -17 -20 -20 -11 -3 -25 -15 -30 -26 -14 -25 -98 -64
-165 -76 -56 -11 -180 -4 -255 13 -76 18 -361 154 -404 193 -12 10 -43 30 -69
45 -27 14 -71 42 -100 61 -28 19 -56 35 -62 35 -5 1 -26 14 -45 30 -19 17 -41
30 -50 30 -9 0 -25 7 -38 15 -16 12 -27 13 -41 6 -10 -6 -20 -8 -23 -6 -6 6
-1 -121 7 -160 6 -33 12 -62 18 -85 19 -73 30 -109 42 -135 18 -41 40 -91 61
-145 25 -62 125 -238 197 -345 139 -207 360 -458 541 -613 108 -93 106 -91
151 -142 28 -31 25 -30 -42 16 -199 137 -538 450 -710 658 -292 351 -518 778
-646 1221 -19 66 -56 215 -82 330 -26 116 -53 233 -60 260 l-13 50 -1 -41z
m892 -5735 c139 -220 300 -316 542 -320 84 -1 21 -17 -71 -18 -126 -1 -230 37
-336 123 -89 72 -191 221 -219 320 -13 43 4 23 84 -105z m1148 -786 c13 -16
12 -17 -3 -4 -17 13 -22 21 -14 21 2 0 10 -8 17 -17z"/>
<path d="M7845 8748 c42 -332 142 -602 333 -894 97 -148 146 -204 178 -204 20
0 24 5 24 33 -1 25 -17 52 -80 127 -171 204 -295 462 -386 800 -48 179 -83
250 -69 138z"/>
<path d="M9894 6610 c3 -30 10 -107 16 -170 6 -63 12 -133 14 -155 3 -22 5
-62 5 -90 1 -58 17 -46 19 15 3 71 -41 437 -54 449 -3 3 -3 -19 0 -49z"/>
<path d="M9280 6634 c0 -5 -7 -45 -15 -89 -23 -133 -37 -325 -26 -370 l9 -40
2 50 c1 28 4 70 6 95 20 190 33 354 29 358 -3 3 -5 1 -5 -4z"/>
<path d="M6227 6215 c22 -27 67 -90 100 -140 271 -406 436 -888 498 -1460 9
-82 19 -152 21 -154 2 -2 4 20 5 50 0 30 2 65 4 79 5 41 -14 268 -31 370 -70
426 -239 863 -413 1071 -90 107 -256 273 -184 184z"/>
<path d="M10916 5732 c-102 -168 -150 -356 -122 -480 9 -40 26 -33 26 11 0 63
42 245 88 385 26 78 47 142 46 142 -2 0 -18 -26 -38 -58z"/>
<path d="M8235 5765 c81 -240 121 -400 127 -503 2 -42 5 -49 14 -37 47 63 13
272 -69 430 -33 63 -81 137 -72 110z"/>
<path d="M8030 5578 c0 -13 5 -66 10 -118 5 -52 10 -141 11 -196 1 -99 10
-137 26 -120 16 15 7 297 -11 379 -17 73 -36 103 -36 55z"/>
</g>
</svg>
